<?xml version="1.0" encoding="utf-8"?>
<!-- Generator: Adobe Illustrator 18.1.1, SVG Export Plug-In . SVG Version: 6.00 Build 0)  -->
<svg version="1.1" id="Layer_1" xmlns="http://www.w3.org/2000/svg" xmlns:xlink="http://www.w3.org/1999/xlink" x="0px" y="0px"
	 viewBox="-527.1 650.8 271.1 115.7" width="484.058754836" height="206.586491828" enable-background="new -527.1 650.8 271.1 115.7" xml:space="preserve">
<g>
	<g>
		<rect x="-550" y="641" fill="#FF1100" width="316.9" height="135.3"/>
	</g>
</g>
<g>
	<g>
		<g>
			<rect x="-537.1" y="653.9" fill="#FF1100" width="291.1" height="109.5"/>
		</g>
	</g>
	<g>
		<g>
			<path fill="#FFD600" d="M-485.8,748.3l-4.6-1l3.1-1l-9.8-2.1c-0.5,0.3-1.1,0.5-1.7,0.5c-0.4,0-1-0.1-1.1-0.2
				c-0.3,0.1-0.5,0.1-0.8,0.1c-0.6,0-1.2-0.2-1.7-0.5l-10,2.2l3.1,1l-4.6,1l0.1-0.9l-4.1,2.2l5.2,0.4l-0.9-0.8l8.1-1.8l-3.1-1
				l7.2-1.7l-4.5,4.8l2.7,0.1l-2.4,2.7l-0.7-0.8l-1.1,3.7l4.6-2l-1.7-0.2l3.8-4.2l-2.7-0.2l3.3-3.8l3.3,3.8l-2.7,0.2l3.8,4.2
				l-1.7,0.2l4.6,2l-1.1-3.7l-0.7,0.8l-2.4-2.7l2.7-0.1l-4.5-4.8l7.2,1.7l-3.1,1l8.1,1.8l-0.9,0.8l5.2-0.4l-4.1-2.2L-485.8,748.3z
				 M-515.5,742.9l7,1.6l-1.3-2l7.5,1.6c-0.5-0.3-0.9-0.7-1.3-1.3l-8.4-1.9l1.3,2l-4.7-1.1l0.5-0.7l-5.1,0.3l5.1,2.7L-515.5,742.9z
				 M-484.1,741.8l-4.7,1.1l1.3-2l-8.1,1.8l0,0c-0.3,0.5-0.7,0.9-1.2,1.2l7-1.5l-1.3,2l7-1.6l-0.5,1.2l5.1-2.7l-5.1-0.3
				L-484.1,741.8z M-519.8,722.4c0,2.1,1.3,3.2,3.2,4.5c-0.6,0.2-2-0.5-2-0.5c-0.1,2.1,3.2,4,3.2,4s-0.6,0.1-1.9-0.4
				c0.8,2.6,4.1,3.6,4.1,3.6s-0.9,0.1-1.9-0.2c0.5,2,4.2,2.6,4.2,2.6s-1.5,0.1-2.4-0.2c0.8,1.8,4,2.4,5.6,1.9
				c1.3-0.3,1.7-0.6,2.4-1.1c0,0,0,0,0,0c0-0.3,0-0.5,0-0.8c-0.5-0.3-1.3,0-1.6,0.1c-1.4,0.5-2.4,0.7-2.9,0.1l0,0
				c0.8,0,1.5-0.2,2.1-0.4c0.5-0.2,1.1-0.6,0.9-1c-0.3-0.7-1.2-0.3-1.7-0.2c-1.5,0.3-2,0.1-2.6-0.4l0,0c0.6,0,1.2,0,1.8,0
				c1-0.1,1.5-0.5,1.3-1.1c-0.2-0.5-0.7-0.5-1.4-0.5c-1.7,0.2-3.1-0.3-3.3-1l0,0c0.9,0.3,2.1,0.5,3.5,0.4c0.6,0,1.1-0.2,1.1-0.7
				c0-0.5-0.2-0.7-1.2-0.8c-4-0.5-4.2-1.9-4.2-1.9c1,0.6,3.6,1.2,4.6,1.3c0.5,0.1,1,0,1.1-0.6c0.2-0.9-1.2-1.3-4.2-2.4
				c-3.3-1.3-3.2-2.2-3.2-2.2c1.1,0.6,3.5,1.6,4.4,1.9c2.4,0.9,3.8,1.3,4,2.3c0.1,0.9-0.6,2.2-0.5,3.4c0.1,1.1,0.9,2.2,2.1,3
				c0-0.4,0.1-0.8,0.2-1.2c-0.3-0.4-0.6-0.8-0.7-1.4c-0.3-1.8,1.4-2.5,0.7-4.5c-1-3.2-10.1-3.7-14.9-10.4c-1.3,2.8,1.5,5.6,1.5,5.6
				C-518.6,723.3-519.5,722.7-519.8,722.4z M-505.5,737.4c-0.5,0.4-1.4,0.7-2.8,1c0.8,0.9,2.2,0.6,3.2,0.1c-0.1-0.4-0.1-0.9-0.1-1.3
				C-505.3,737.2-505.4,737.3-505.5,737.4z M-495.2,732.9c-0.7-2.2-2-3.6-3.5-3.6c-0.4,0-0.7,0.1-1,0.2c-0.2-0.1-0.5-0.1-0.7-0.1
				c0,0,0,0,0,0c0,0-0.1,0-0.1,0c-2.2,0-4,3.3-4,7.3c0,2.4,0.6,4.5,1.6,5.9c0.7,0.9,1.4,1.3,2.3,1.3c0,0,0,0-0.1-0.1
				c-0.3-0.3-0.6-0.6-0.9-1c-1.2-1.1-2-3.4-2-6c0-2.6,0.8-4.9,2-6c0,0,0.7-0.8,1.5-0.8v0c-1.5,1.1-2.6,3.7-2.6,6.9
				c0,4.1,1.8,7.3,4.1,7.3c1.5,0,2.9-1.6,3.6-3.9c-0.2-0.1-0.5-0.3-0.9-0.6c-0.5,1.7-1.4,2.8-2.5,2.8c-1.6,0-2.9-2.5-2.9-5.7
				c0-3.2,1.3-5.7,2.9-5.7c1.1,0,2,1.1,2.5,2.9C-495.6,733.6-495.4,733.2-495.2,732.9z M-494.6,728c-0.6,2.1,1.1,2.7,0.7,4.5
				c-0.4,2.2-3.3,3.1-4.5,3.1c-0.1,0-0.3,0.4-0.3,1c0,0.4,0.2,0.9,0.3,1c0,0,2.6,1.7,3.3,1c-1-0.4-1.1-1.4-0.3-0.7
				c0.7,0.6,3,1.8,4.2,0.5c-1.4-0.3-2.3-0.6-2.8-1c-0.7-0.5-0.8-1.2-0.3-0.8c0.7,0.5,1.1,0.8,2.4,1.1c1.6,0.4,4.8-0.1,5.6-1.9
				c-1,0.3-2.4,0.2-2.4,0.2s3.7-0.7,4.2-2.6c-1,0.3-1.9,0.2-1.9,0.2s3.3-1,4.1-3.6c-1.3,0.5-1.9,0.4-1.9,0.4s3.3-1.9,3.2-4
				c0,0-1.4,0.7-2,0.5c1.9-1.3,3.2-2.4,3.2-4.5c-0.4,0.3-1.2,0.8-1.6,0.8c0,0,2.8-2.8,1.5-5.6C-484.5,724.3-493.6,724.8-494.6,728z
				 M-487.6,726.8c-3,1.2-4.4,1.5-4.2,2.4c0.1,0.6,0.6,0.6,1.1,0.6c1-0.1,3.6-0.8,4.6-1.3c0,0-0.2,1.4-4.2,1.9
				c-0.9,0.1-1.2,0.3-1.2,0.8c0,0.5,0.5,0.6,1.1,0.7c1.4,0.1,2.6-0.1,3.5-0.4l0,0c-0.1,0.7-1.6,1.2-3.3,1c-0.7-0.1-1.2-0.1-1.4,0.5
				c-0.2,0.6,0.3,1,1.3,1.1c0.6,0.1,1.2,0.1,1.8,0l0,0c-0.6,0.5-1.1,0.7-2.6,0.4c-0.5-0.1-1.4-0.5-1.7,0.2c-0.1,0.4,0.4,0.8,0.9,1
				c0.6,0.2,1.3,0.3,2.1,0.4l0,0c-0.5,0.6-1.6,0.4-2.9-0.1c-0.4-0.1-1.1-0.4-1.7-0.1c-0.7,0.4-1.7,0.9-2.2,0.9
				c-1.2,0.2-1.3-0.4-1.3-0.4c2.5,0,5.5-2,5.6-4.1c0.1-1.2-0.6-2.4-0.5-3.3c0.2-1,1.6-1.4,4-2.3c0.9-0.4,3.3-1.3,4.4-1.9
				C-484.4,724.6-484.3,725.5-487.6,726.8z M-498.4,734.8c0.2,0,0.3,0.1,0.5,0.2c0.4-0.1,0.8-0.3,1.3-0.5c-0.1-0.5-0.2-0.9-0.3-1.2
				l-0.9,1.5v-2.8c-0.2-0.1-0.4-0.2-0.6-0.2s-0.4,0.1-0.6,0.2v2.7l-0.9-1.8c-0.3,0.4-0.5,1-0.6,1.6l0.9,1.4l-1.1-0.1
				c0,0.3,0,0.7,0,1c0,0.1,0,0.1,0,0.2c0,0,0,0,0,0.1c0,0.2,0,0.4,0,0.5l1.3-0.1l-1,1.7c0.2,0.6,0.4,1,0.6,1.5l0.9-1.8v2.8
				c0.2,0.1,0.4,0.2,0.6,0.2s0.4-0.1,0.6-0.2v-2.8l0.9,1.5c0.1-0.2,0.2-0.5,0.2-0.8c-0.5-0.5-1-0.8-1.4-1c-0.1,0.1-0.2,0.1-0.3,0.1
				c-0.5,0-0.9-0.8-0.9-1.9C-499.4,735.6-498.9,734.8-498.4,734.8z"/>
			<g>
				<path fill="#FFD600" d="M-499.7,727.3c-0.3,0-0.5-0.2-0.6-0.4c-1-1.9-3.5-3-6.3-4.3c-5.1-2.2-11.3-5.1-11.3-14.2
					c0-3.1,0.3-5.1,0.6-7.1c0.3-2.1,0.6-4.2,0.6-7.7c0-6-3.1-11.3-3.1-11.3c-0.1-0.2-0.1-0.4,0-0.7c0.1-0.2,0.3-0.4,0.5-0.4
					c5.1-1.3,8.5-6.6,8.5-6.7c0.2-0.3,0.7-0.5,1-0.2c1.7,1,5.9,1.7,10.3,1.7c4.4,0,8.6-0.7,10.3-1.7c0.3-0.2,0.8-0.1,1,0.2
					c0,0.1,3.4,5.4,8.5,6.7c0.2,0.1,0.4,0.2,0.5,0.4c0.1,0.2,0.1,0.5,0,0.7c0,0.1-3.1,5.3-3.1,11.3c0,3.5,0.3,5.6,0.6,7.7
					c0.3,2,0.6,4,0.6,7.1c0,9.1-6.3,11.9-11.3,14.2c-2.8,1.3-5.3,2.4-6.3,4.3C-499.2,727.1-499.5,727.3-499.7,727.3z M-518.3,682.4
					c0.9,1.8,2.9,6.2,2.9,11.2c0,3.6-0.3,5.8-0.6,7.9c-0.3,2-0.6,3.9-0.6,6.9c0,8.2,5.6,10.7,10.5,12.9c2.5,1.1,5,2.2,6.4,4
					c1.4-1.8,3.8-2.8,6.4-4c4.9-2.2,10.5-4.7,10.5-12.9c0-3-0.3-4.9-0.6-6.9c-0.3-2.1-0.6-4.3-0.6-7.9c0-5,2-9.5,2.9-11.2
					c-4.2-1.4-7.1-5.1-8.1-6.5c-2.2,1-6.1,1.6-10.4,1.6c-4.4,0-8.3-0.6-10.4-1.6C-511.2,677.3-514.1,680.9-518.3,682.4z"/>
			</g>
			<g>
				<path fill="#FFD600" d="M-507.9,680.2c0.2,0.1,0.4,0.2,0.6,0.2c0.1,0,0.1-0.1,0-0.3c-0.1-0.2-0.3-0.4-0.2-0.4
					c0.1,0,0.2,0.1,0.2,0.1c0.1,0.2,0.3,0.3,0.4,0.4c0,0.1,0,0.4,0.2,0.6c0,0,0,0,0.1,0c0.1,0,0.1-0.1,0.1-0.2c0-0.2-0.1-0.6,0-0.5
					c0.1,0.1,0.1,0.4,0.1,0.7c0,0,0,0.1,0.1,0.1c0.1,0,0.1,0,0.1-0.1c0-0.3,0-0.6,0.1-0.6c0.1,0,0,0.5,0,0.7c0,0,0,0,0.1,0
					c0,0,0.1-0.1,0.1-0.1c0-0.2,0.1-0.7,0.2-0.6c0,0-0.1,0.4-0.1,0.6c0,0,0,0,0,0c0.1,0,0.4-0.5,0.4-0.7c0-0.3-0.1-0.7-0.2-0.7
					c-0.2,0-0.2,0.1-0.3,0.1c-0.1,0-0.1-0.2-0.3-0.2c-0.1,0-0.1,0.1-0.2,0.1c-0.1,0-0.1-0.1-0.3-0.1c-0.2,0-0.1,0.2-0.2,0.2
					c-0.1,0-0.1-0.1-0.3-0.1c-0.1,0-0.3,0.2-0.3,0.2c-0.1-0.1-0.2-0.1-0.3-0.1c-0.2-0.1-0.4,0-0.4,0.3
					C-508.2,679.9-508.1,680.1-507.9,680.2z"/>
				<path fill="#FFD600" d="M-492.6,698.2c0.4,0,0.8-0.9,0.8-2c0-1.1-0.4-2-0.8-2c-0.4,0-0.8,0.9-0.8,2
					C-493.4,697.3-493,698.2-492.6,698.2z"/>
				<path fill="#FFD600" d="M-503.8,680.3c0,0.1,0,0.4,0,0.4c0.4,0,0.8,0,1.2-0.1c1.1-0.1,2.4-0.1,3.4-0.1h0.1
					c5.3,0,9.7,1.5,11.5,4.3c0-0.1,0-0.1,0-0.3c0-1.3-3.6-4.9-11.7-4.9c-2.2,0-4.4,0.2-4.9,0.3l0,0
					C-504.1,679.9-503.8,680.2-503.8,680.3z"/>
				<path fill="#FFD600" d="M-493,701.8c1.3,0,2.4-2.5,2.4-5.5c0-3.1-1.1-5.5-2.4-5.5c-1.3,0-2.4,2.5-2.4,5.5
					S-494.3,701.8-493,701.8z M-492.7,693.5c0.7,0,1.2,1.2,1.2,2.7s-0.6,2.7-1.2,2.7c-0.7,0-1.2-1.2-1.2-2.7
					C-493.9,694.7-493.4,693.5-492.7,693.5z"/>
				<path fill="#FFD600" d="M-504.6,679.9C-504.6,680-504.6,680-504.6,679.9c0,0.1-0.1,0.2-0.2,0.3c-0.1,0.1-0.1,0.3-0.1,0.3
					l0.2-0.2c0,0.1,0.1,0.3,0.1,0.3v0.7c-0.1,0.1-0.1,0.1-0.1,0.2c0,0.2,0.1,0.3,0.3,0.3c0.2,0,0.3-0.1,0.3-0.3
					c0-0.1-0.1-0.2-0.1-0.2v-0.7c0,0,0.1-0.3,0.1-0.4c0-0.2-0.1-0.4-0.1-0.4v-0.7c0.1-0.1,0.1-0.1,0.1-0.2c0-0.2-0.1-0.3-0.3-0.3
					c-0.2,0-0.3,0.1-0.3,0.3c0,0.1,0.1,0.2,0.1,0.2L-504.6,679.9C-504.5,679.9-504.6,679.9-504.6,679.9z"/>
				<path fill="#FFD600" d="M-489.9,708.9c-0.1-1.6,4.6-5.3,2.4-8.5c-0.3,2.1-3.3,3.4-3.6,6.4c-1.2-1-4.2,0.2-5.2,0.1
					c1.5,2.6,4.6,0.9,4.6,2.8c0,1.5-0.8,2.1-1.9,1.7c-0.7-0.9-1.6-1.5-2.6-1.5c-2,0-3.2,1.3-3.2,2.9c0,1.3,0.8,2.2,1.6,2.4
					c1,0.2,1.4-0.5,1.4-1.5c0-0.4-0.1-0.9-0.3-0.9c-0.2,0-0.1,0.2-0.3,0.2c-0.1,0-0.1-0.1-0.1-0.2c0-0.3,0.1-0.5,0.4-0.5
					c0.5,0,1,0.4,1,1.3c0,1.2-0.7,2.4-2.2,2.4c-2,0-3.4-1.9-3.4-4c0-2.4,2.1-3.8,2.1-7.6c0-2.3-1.2-4.1-1.2-4.2
					c-0.1-0.2,0-0.4,0.1-0.5c0.1-0.1,0.6-0.6,1.2-1.6c0.2-0.4,0.4-1.2,0.4-2.2c0-2.3,1.1-4.2,1.4-4.5c-0.3,1.3-0.5,2.9-0.5,4.5
					c0,5.1,1.8,9.2,4.1,9.2c2.2,0,4.1-4.1,4.1-9.2c0-5.1-1.8-9.2-4.1-9.2c-0.4,0-0.8,0.1-1.2,0.4c-0.7-0.6-3-0.5-2.5-2
					c0.7,1.4,4.8,1.3,5.3,0.4c0,0-1.4,0.1-2.8-0.1c1-0.2,1.1-1,1.1-1c-0.5,0.2-2.1,0.8-3.3,0c-0.1-0.2-0.2-0.4-0.3-0.6
					c-0.2-1.7-2-2.4-2.9-2.4c-1.3,0-2.5,0.6-2.5,1.1c0,0.1,0,0.2,0,0.3l0,0l0,0c-0.1,0.2-0.4,0.8-0.5,1.3c-0.1,0.5,0.1,1,0.1,1.1
					c0,0.1-0.1,0.3-0.2,0.7c-0.1,0.2-0.2,0.5-0.2,0.6c0,0.1,0.1,0.2,0.3,0.2c0.1,0,0.2,0.1,0.2,0.1c0.1,0.1,0,0.2-0.1,0.3
					c0,0,0,0.1,0.1,0.1c0.2,0,0.4,0.1,0.5,0.2c0.1,0.1,0.2,0.1,0.2,0.2c0,0-0.1,0.1-0.2,0c-0.1,0-0.2-0.1-0.3-0.1
					c-0.1,0-0.1,0-0.1,0.1c0,0,0.1,0.1,0.2,0.2c0.1,0,0.2,0,0.2,0.1c0,0.1-0.2,0.1-0.2,0.4c0,0.1,0,0.2,0.1,0.3
					c0.1,0.1,0.4,0.2,0.8,0.1c0.2,0,0.4-0.1,0.6-0.2l0.1-0.1c0.3-0.1,0.7-0.3,0.9-0.4c0,0,0.1,0,0.1,0c0,0.3-0.7,0.8-1.1,1
					c0,0,0,0.3-0.1,0.4c-0.1,0.3-0.8,0.5-1.2,0.3c-2.1-0.9-1.9-0.1-5.4-2.5c0.3-1.2,0.5-3.6,0.8-4.5c0.1-0.3,0.5-1.1,1-1.3
					c0.2-0.1,0.5-0.1,0.7-0.3c0.3-0.2,0.3-0.4,0.4-0.6c0.1-0.2,0.2-0.3,0.2-0.4c0.1-0.1,0.1-0.2,0.2-0.3c0-0.1,0-0.1,0-0.2
					c-0.2,0-0.4,0.2-0.5,0.2c-0.1,0.4-0.4,0.9-0.7,0.8c0,0-0.1,0.1-0.2,0.1c-0.1,0-0.1,0-0.2,0c0,0-0.1,0-0.1,0
					c-0.1,0-0.2,0-0.2-0.1c0,0-0.1,0-0.1,0c-0.1,0-0.3-0.2-0.3-0.2c-0.4,0-0.7-0.1-0.9-0.2c0,0.2-0.1,0.4-0.2,0.7
					c-0.2,0.3-0.5,1-0.8,1.4c-1.8,2.9-1.6,4.2-2,5.5c0.2,0.7,1.6,2,5.2,4.3c0.2,0.1,0.5,0.2,0.8,0c0.6-0.3,0.7-0.6,0.9-0.6
					c0.1,0-0.2,0.7-1,1.1c-0.4,0.2-1.2,0.6-1.4,1c0,0-0.5,1.2,0.5,2.1l0,0l0,0c0,0-0.5,2.3-0.8,3.3c-0.3,1-3.6,4-3.6,10.5
					c0,6.8,5.8,11,10.1,11c5,0,7.2-3.7,7.2-6.9c0-1.4-0.5-2-0.5-2c1.3,0.5,1.3,3,1,3.8c0,0,3.1-1.4,2.9-4.7
					C-489.4,710.2-489.8,709.7-489.9,708.9z M-493.1,689.9c1.6,0,2.8,2.8,2.8,6.3c0,3.5-1.3,6.3-2.8,6.3c-1.5,0-2.8-2.8-2.8-6.3
					C-495.9,692.7-494.7,689.9-493.1,689.9z M-498.1,686.2c-1.6-0.2-1.7-1.9-2.2-2.4C-499.5,683.9-499.4,685.3-498.1,686.2z
					 M-502.2,685.6c0.2,0.1,0.4,0.3,0.4,0.3c0,0-0.1,0.1-0.5,0c-0.1,0,0,0,0,0c0,0.1-0.1,0.1-0.2,0.1c-0.1,0-0.2-0.1-0.2-0.3
					c-0.1,0-0.2-0.2-0.1-0.2c0.1,0,0.1,0,0.1,0c0.1,0-0.3-0.2-0.3-0.4c0-0.1,0.1-0.2,0.3-0.2c0.4-0.1,0.9,0.3,0.9,0.4
					c-0.1,0-0.7-0.2-0.7,0C-502.4,685.5-502.3,685.6-502.2,685.6z M-500.8,685.8c-0.3-1.4-1.3-1.8-1.4-2.3c0.4,0.2,1.6,1.1,1.9,2.3
					c0.1,0.6,0.3,0.8,0.5,1c0.9,0.6,1.6-0.2,2.7,1.1c-1.2-0.5-1.3-0.3-1.7-0.4c0.4,0.6,0.7,1.3,1.4,1.4c0.8,0.1,1.2-1.2,1.9-0.9
					c-0.6,0.7-1.1,1.7-1.4,2.9c-0.1,0-0.3-0.1-0.4-0.1c-0.8-0.4-1.2-1.2-1.3-1.8v0c-0.1-0.5-0.2-0.7-0.4-0.7
					C-499.8,688.1-500.4,687.6-500.8,685.8z M-503,694.4C-503,694.4-502.9,694.4-503,694.4c-0.5,1.7,0.7,2.4,1.7,2.4
					c0.8,0,1.2-0.2,1.5-0.3c0.1,0,0.1,0,0.1,0c0,0.2-0.4,1-1.7,1c-1.4,0-2.1-0.9-2.1-1.9C-503.4,694.9-503,694.4-503,694.4z
					 M-506.1,705.3c-2.7-1-1.9-2.9-1.9-2.9l0,0c0.4,3.5,6.5,2.4,8.2,1c-0.1,0.6-0.5,1.1-2.4,1.8C-503.5,705.7-505,705.7-506.1,705.3
					z"/>
			</g>
			<path fill="#FFD600" d="M-507.2,672.6c0.6,0.3,1.7,0.6,3.2,0.8l0.2-0.7c-1.2-0.1-2-0.3-2.5-0.6
				C-506.8,672.3-507,672.4-507.2,672.6z M-503.6,673.4c1.1,0.1,2.3,0.2,3.6,0.2v-0.7c-1.2,0-2.4-0.1-3.5-0.1L-503.6,673.4z
				 M-503.8,671c0,0,0.1,0.2,0.3,0.3c1-0.1,2.3-0.1,3.6-0.2V669c-1.6,0-3.1,0.1-4.3,0.2L-503.8,671z M-505.8,664.2
				c-0.6,0.1-1.1,0.2-1.6,0.3l0.1,0.4c0,0.1,0,0.2-0.1,0.2l-1.2,0.4c-0.1,0-0.2,0-0.2-0.1l-0.2-0.4c-0.8,0.3-1.2,0.6-1.2,0.9
				l0.7,1.8c0.6-0.6,2.2-1.1,4.2-1.4L-505.8,664.2z M-510,662.2c0-0.1-0.1-0.1-0.2-0.1c0,0-1.3,0.7-1.3,1.2c0,0.1,0,0.1,0,0.1
				c0,0.1,0.1,0.2,0.1,0.3l0.7,1.8c0.2-0.4,0.7-0.8,1.5-1.1L-510,662.2z M-504.1,671.4c-0.1-0.1-0.1-0.2-0.2-0.3l-0.4-1.8
				c-2.3,0.3-3.7,0.8-3.7,1.2l0.7,1.7h0c0,0,0,0.1,0.1,0.1C-507.1,671.8-505.8,671.6-504.1,671.4
				C-504.1,671.4-504.1,671.4-504.1,671.4z M-507.6,667.3c-1,0.3-1.6,0.6-1.6,0.9l0.7,1.8c0.3-0.3,0.9-0.5,1.6-0.7L-507.6,667.3z
				 M-507.5,663.9c1.1-0.3,2.3-0.5,3.7-0.6l-0.4-2.3c0-0.1-0.1-0.1-0.2-0.1l-1,0.1c-0.1,0-0.1,0.1-0.1,0.2l0.3,1.7
				c0,0.1-0.1,0.2-0.1,0.2l-0.7,0.1c-0.1,0-0.2,0-0.2-0.1l-0.5-1.7c0-0.1-0.1-0.1-0.2-0.1l-1,0.2c-0.1,0-0.1,0.1-0.1,0.2
				L-507.5,663.9z M-499.7,663.2c0.7,0,1.4,0,2,0l0.1-2.3c0-0.1-0.1-0.2-0.2-0.2l-1.1,0c-0.1,0-0.1,0.1-0.2,0.2l-0.1,1.7
				c0,0.1-0.1,0.2-0.2,0.2c0,0-0.2,0-0.4,0c-0.2,0-0.4,0-0.4,0c-0.1,0-0.2-0.1-0.2-0.2l-0.1-1.7c0-0.1-0.1-0.2-0.2-0.2l-1.1,0
				c-0.1,0-0.2,0.1-0.2,0.2l0.1,2.3C-501.1,663.2-500.4,663.2-499.7,663.2z M-504.9,666.2c1.5-0.2,3.2-0.3,4.9-0.3v-2.2
				c-0.6,0-1.2,0-1.8,0l0,0.5c0,0.1-0.1,0.2-0.1,0.2l-1.6,0.1c-0.1,0-0.2-0.1-0.2-0.1l-0.1-0.5c-0.6,0.1-1.1,0.1-1.7,0.2
				L-504.9,666.2z M-506.5,669.2c1.2-0.3,2.6-0.5,4.1-0.6l-0.2-2.1c-1.9,0.1-3.4,0.4-4.5,0.6L-506.5,669.2z M-497.8,664.2l0-0.5
				c-0.6,0-1.2,0-1.8,0v2.2c1.7,0,3.4,0.1,4.9,0.3l0.5-2.1c-0.5-0.1-1.1-0.1-1.7-0.2l-0.1,0.5c0,0.1-0.1,0.1-0.2,0.1l-1.6-0.1
				C-497.7,664.4-497.8,664.3-497.8,664.2z M-493,669.2l0.6-2c-1.1-0.3-2.6-0.5-4.5-0.6l-0.2,2.1
				C-495.6,668.7-494.1,668.9-493,669.2z M-491.4,661.7c0-0.1,0-0.2-0.1-0.2l-1-0.2c-0.1,0-0.2,0-0.2,0.1l-0.5,1.7
				c0,0.1-0.1,0.1-0.2,0.1l-0.7-0.1c-0.1,0-0.1-0.1-0.1-0.2l0.3-1.7c0-0.1-0.1-0.2-0.1-0.2l-1-0.1c-0.1,0-0.2,0.1-0.2,0.1l-0.4,2.3
				c1.4,0.1,2.6,0.3,3.7,0.6L-491.4,661.7z M-491.9,667.3l-0.7,2c0.7,0.2,1.3,0.4,1.6,0.7l0.7-1.8
				C-490.3,667.9-490.9,667.6-491.9,667.3z M-490.6,664.9l-0.1,0.4c0,0.1-0.1,0.1-0.2,0.1l-1.2-0.4c-0.1,0-0.1-0.1-0.1-0.2l0.1-0.4
				c-0.5-0.1-1-0.2-1.6-0.3l-0.5,2.1c2,0.3,3.6,0.8,4.2,1.4l0.7-1.8C-489.3,665.6-489.8,665.3-490.6,664.9z M-494.9,669.3l-0.4,1.8
				c0,0.1-0.1,0.2-0.2,0.3h0c1.7,0.2,3.1,0.5,3.5,0.9c0,0,0-0.1,0.1-0.1h0l0.7-1.7C-491.2,670.1-492.6,669.6-494.9,669.3z
				 M-489.3,662.2c-0.1,0-0.2,0-0.2,0.1l-0.9,2.2c0.8,0.3,1.3,0.7,1.5,1.1l0.7-1.8c0-0.1,0.1-0.2,0.1-0.3c0,0,0,0,0-0.1
				C-488,662.9-489.3,662.2-489.3,662.2z M-495.3,669.2c-1.2-0.1-2.6-0.2-4.3-0.2v2.2c1.3,0,2.5,0.1,3.6,0.2
				c0.3-0.1,0.3-0.3,0.3-0.3L-495.3,669.2z M-495.7,672.7l0.1,0.7c1.5-0.2,2.6-0.5,3.2-0.8c-0.1-0.1-0.4-0.3-0.9-0.4
				C-493.6,672.4-494.5,672.6-495.7,672.7z M-499.5,672.9v0.7c1.3,0,2.5-0.1,3.6-0.2l-0.2-0.7C-497.1,672.9-498.3,672.9-499.5,672.9
				z M-497.2,666.5c-0.8,0-1.6-0.1-2.5-0.1c-0.9,0-1.8,0-2.5,0.1l0.2,2.1c0.8,0,1.6-0.1,2.3-0.1c0.7,0,1.5,0,2.3,0.1L-497.2,666.5z"
				/>
		</g>
	</g>
	<g>
		<path fill="#FFD600" d="M-451.4,690.9h-4.1c-0.3,0-0.5-0.3-0.5-0.5v-3.1c0-0.3,0.2-0.5,0.5-0.5h12.6c0.3,0,0.5,0.3,0.5,0.5v3.1
			c0,0.3-0.2,0.5-0.5,0.5h-4.1v15.2c0,0.3-0.3,0.5-0.5,0.5h-3.4c-0.3,0-0.5-0.3-0.5-0.5L-451.4,690.9L-451.4,690.9z"/>
		<path fill="#FFD600" d="M-439.7,687.3c0-0.3,0.2-0.5,0.5-0.5h8.5c3.4,0,6.2,2.8,6.2,6.1c0,2.6-1.7,4.7-4.2,5.7l3.9,7.2
			c0.2,0.4,0,0.8-0.5,0.8h-3.8c-0.2,0-0.4-0.1-0.5-0.3l-3.8-7.5h-2v7.3c0,0.3-0.3,0.5-0.5,0.5h-3.4c-0.3,0-0.5-0.3-0.5-0.5
			C-439.7,706.1-439.7,687.3-439.7,687.3z M-431,695.3c1.2,0,2.2-1.1,2.2-2.3c0-1.2-1-2.2-2.2-2.2h-4.2v4.4H-431z"/>
		<path fill="#FFD600" d="M-423.4,705.9l8.9-19.1c0.1-0.2,0.3-0.3,0.5-0.3h0.3c0.2,0,0.4,0.1,0.5,0.3l8.9,19.1
			c0.2,0.4-0.1,0.7-0.5,0.7h-3.2c-0.5,0-0.7-0.2-1-0.7l-1-2.2h-7.7l-1,2.3c-0.1,0.3-0.5,0.7-1,0.7h-3.1
			C-423.3,706.7-423.5,706.3-423.4,705.9z M-411.7,699.8l-2.2-4.7h0l-2.1,4.7H-411.7z"/>
		<path fill="#FFD600" d="M-399.6,686.9c0-0.3,0.3-0.5,0.5-0.5h0.5c0.1,0,0.4,0.1,0.5,0.3l6.6,12.3h0.1l6.6-12.3
			c0.1-0.2,0.3-0.3,0.5-0.3h0.5c0.2,0,0.5,0.2,0.5,0.5l3.2,19.1c0.1,0.4-0.2,0.6-0.5,0.6h-3.4c-0.3,0-0.5-0.2-0.5-0.5l-1.3-8.8h-0.1
			l-4.8,9.2c-0.1,0.2-0.3,0.3-0.5,0.3h-0.5c-0.2,0-0.4-0.1-0.5-0.3l-4.8-9.2h-0.1l-1.3,8.8c0,0.2-0.3,0.5-0.5,0.5h-3.4
			c-0.3,0-0.6-0.3-0.5-0.6L-399.6,686.9z"/>
		<path fill="#FFD600" d="M-379.2,687.4c-0.1-0.4,0.1-0.7,0.5-0.7h3.3c0.2,0,0.5,0.2,0.5,0.4l2.4,9.6h0.1l4.4-10
			c0.1-0.2,0.3-0.3,0.5-0.3h0.5c0.3,0,0.4,0.1,0.5,0.3l4.4,10h0.1l2.4-9.6c0.1-0.2,0.3-0.4,0.5-0.4h3.3c0.4,0,0.6,0.3,0.5,0.7
			l-5.4,19.1c-0.1,0.2-0.3,0.4-0.5,0.4h-0.5c-0.2,0-0.4-0.1-0.5-0.3l-5.2-11.6h-0.1l-5.2,11.6c-0.1,0.2-0.3,0.3-0.5,0.3h-0.5
			c-0.2,0-0.5-0.2-0.5-0.4L-379.2,687.4z"/>
		<path fill="#FFD600" d="M-356,705.9l8.9-19.1c0.1-0.2,0.3-0.3,0.5-0.3h0.3c0.2,0,0.4,0.1,0.5,0.3l8.9,19.1
			c0.2,0.4-0.1,0.7-0.5,0.7h-3.2c-0.5,0-0.7-0.2-1-0.7l-1-2.2h-7.7l-1,2.3c-0.1,0.3-0.5,0.7-1,0.7h-3.1
			C-355.9,706.7-356.2,706.3-356,705.9z M-344.3,699.8l-2.2-4.7h0l-2.1,4.7H-344.3z"/>
		<path fill="#FFD600" d="M-336.3,704.2l1.9-1.9c0.2-0.2,0.5-0.2,0.8,0c0.3,0.3,0.7,0.6,1.5,0.6c0.8,0,1.7-0.7,1.7-2.2v-13.4
			c0-0.3,0.2-0.5,0.5-0.5h3.5c0.3,0,0.5,0.3,0.5,0.5v13.4c0,4-2.8,6.2-6.1,6.2c-2.5,0-3.8-1.5-4.3-2.1
			C-336.5,704.7-336.5,704.4-336.3,704.2z"/>
		<path fill="#FFD600" d="M-321.7,687.3c0-0.3,0.2-0.5,0.5-0.5h11.8c0.3,0,0.5,0.3,0.5,0.5v3.1c0,0.3-0.2,0.5-0.5,0.5h-7.9v3.5h6.5
			c0.3,0,0.5,0.3,0.5,0.5v3.1c0,0.3-0.3,0.5-0.5,0.5h-6.5v3.8h7.9c0.3,0,0.5,0.3,0.5,0.5v3.1c0,0.3-0.2,0.5-0.5,0.5h-11.8
			c-0.3,0-0.5-0.3-0.5-0.5V687.3z"/>
		<path fill="#FFD600" d="M-455.7,715.9c-0.1-0.4,0.1-0.7,0.5-0.7h3.3c0.2,0,0.5,0.2,0.5,0.4l2.4,9.6h0.1l4.4-10
			c0.1-0.2,0.3-0.3,0.5-0.3h0.5c0.3,0,0.4,0.1,0.5,0.3l4.4,10h0.1l2.4-9.6c0.1-0.2,0.3-0.4,0.5-0.4h3.3c0.4,0,0.6,0.3,0.5,0.7
			L-437,735c-0.1,0.2-0.3,0.4-0.5,0.4h-0.5c-0.2,0-0.4-0.1-0.5-0.3l-5.2-11.6h-0.1l-5.2,11.6c-0.1,0.2-0.3,0.3-0.5,0.3h-0.5
			c-0.2,0-0.5-0.2-0.5-0.4L-455.7,715.9z"/>
		<path fill="#FFD600" d="M-432.6,734.4l8.9-19.1c0.1-0.2,0.3-0.3,0.5-0.3h0.3c0.2,0,0.4,0.1,0.5,0.3l8.9,19.1
			c0.2,0.4-0.1,0.7-0.5,0.7h-3.2c-0.5,0-0.7-0.2-1-0.7l-1-2.2h-7.7l-1,2.3c-0.1,0.3-0.5,0.7-1,0.7h-3.1
			C-432.5,735.1-432.8,734.8-432.6,734.4z M-420.9,728.3l-2.2-4.7h0l-2.1,4.7H-420.9z"/>
		<path fill="#FFD600" d="M-411.6,715.8c0-0.3,0.2-0.5,0.5-0.5h8.5c3.4,0,6.2,2.8,6.2,6.1c0,2.6-1.7,4.7-4.2,5.7l3.9,7.2
			c0.2,0.4,0,0.8-0.5,0.8h-3.8c-0.2,0-0.4-0.1-0.5-0.3l-3.8-7.5h-2v7.3c0,0.3-0.3,0.5-0.5,0.5h-3.4c-0.3,0-0.5-0.3-0.5-0.5V715.8z
			 M-403,723.7c1.2,0,2.2-1.1,2.2-2.3c0-1.2-1-2.2-2.2-2.2h-4.2v4.4L-403,723.7L-403,723.7z"/>
		<path fill="#FFD600" d="M-393.5,732.4l1.3-2.4c0.2-0.4,0.8-0.3,1-0.2c0.1,0.1,2.2,1.6,4,1.6c1.1,0,2-0.7,2-1.7
			c0-1.2-1-2.1-2.9-2.9c-2.4-1-5.5-2.9-5.5-6.3c0-2.8,2.2-5.7,6.6-5.7c3,0,5.2,1.5,6.1,2.1c0.3,0.2,0.3,0.7,0.2,0.9l-1.5,2.2
			c-0.2,0.3-0.7,0.6-1,0.4c-0.3-0.1-2.3-1.7-4.1-1.7c-1,0-1.8,0.7-1.8,1.5c0,1.1,0.9,1.8,3.1,2.8c2.2,0.9,5.7,2.6,5.7,6.5
			c0,2.9-2.5,5.9-6.7,5.9c-3.7,0-5.7-1.5-6.4-2.2C-393.7,732.9-393.8,732.8-393.5,732.4z"/>
		<path fill="#FFD600" d="M-378.7,734.1l7.6-14.6v-0.1h-6.2c-0.3,0-0.5-0.3-0.5-0.5v-3.1c0-0.3,0.3-0.5,0.5-0.5h12.1
			c0.3,0,0.5,0.3,0.5,0.5v0.4l-7.3,14.8v0.1h6.2c0.3,0,0.5,0.3,0.5,0.5v3.1c0,0.3-0.2,0.5-0.5,0.5h-12.3c-0.3,0-0.5-0.3-0.5-0.5
			L-378.7,734.1L-378.7,734.1z"/>
		<path fill="#FFD600" d="M-363.9,734.4l8.9-19.1c0.1-0.2,0.3-0.3,0.5-0.3h0.3c0.2,0,0.4,0.1,0.5,0.3l8.9,19.1
			c0.2,0.4-0.1,0.7-0.5,0.7h-3.2c-0.5,0-0.7-0.2-1-0.7l-1-2.2h-7.7l-1,2.3c-0.1,0.3-0.5,0.7-1,0.7h-3.1
			C-363.9,735.1-364.1,734.8-363.9,734.4z M-352.2,728.3l-2.2-4.7h0l-2.1,4.7H-352.2z"/>
		<path fill="#FFD600" d="M-345.8,715.9c-0.1-0.4,0.1-0.7,0.5-0.7h3.3c0.2,0,0.5,0.2,0.5,0.4l2.4,9.6h0.1l4.4-10
			c0.1-0.2,0.3-0.3,0.5-0.3h0.5c0.3,0,0.4,0.1,0.5,0.3l4.4,10h0.1l2.4-9.6c0.1-0.2,0.3-0.4,0.5-0.4h3.3c0.4,0,0.6,0.3,0.5,0.7
			l-5.4,19.1c-0.1,0.2-0.3,0.4-0.5,0.4h-0.5c-0.2,0-0.4-0.1-0.5-0.3l-5.2-11.6h-0.1l-5.2,11.6c-0.1,0.2-0.3,0.3-0.5,0.3h-0.5
			c-0.2,0-0.5-0.2-0.5-0.4L-345.8,715.9z"/>
		<path fill="#FFD600" d="M-320.2,732.4l1.3-2.4c0.2-0.4,0.8-0.3,1-0.2c0.1,0.1,2.2,1.6,4,1.6c1.1,0,2-0.7,2-1.7
			c0-1.2-1-2.1-2.9-2.9c-2.4-1-5.5-2.9-5.5-6.3c0-2.8,2.2-5.7,6.6-5.7c3,0,5.2,1.5,6.1,2.1c0.3,0.2,0.3,0.7,0.2,0.9l-1.5,2.2
			c-0.2,0.3-0.7,0.6-1,0.4c-0.3-0.1-2.3-1.7-4.1-1.7c-1,0-1.8,0.7-1.8,1.5c0,1.1,0.9,1.8,3.1,2.8c2.2,0.9,5.7,2.6,5.7,6.5
			c0,2.9-2.5,5.9-6.7,5.9c-3.7,0-5.7-1.5-6.4-2.2C-320.4,732.9-320.5,732.8-320.2,732.4z"/>
		<path fill="#FFD600" d="M-303.8,715.9c0-0.4,0.3-0.7,0.7-0.7h3.3c0.4,0,0.7,0.3,0.7,0.7v7.5l6.3-7.9c0.1-0.1,0.4-0.3,0.5-0.3h3.6
			c0.5,0,0.8,0.6,0.5,1.1l-6.7,8.3l7.3,9.4c0.3,0.4,0,1.1-0.5,1.1h-3.9c-0.2,0-0.5-0.1-0.5-0.2l-6.6-8.9v8.5c0,0.4-0.3,0.7-0.7,0.7
			h-3.3c-0.4,0-0.7-0.3-0.7-0.7V715.9L-303.8,715.9z"/>
		<path fill="#FFD600" d="M-285.1,715.8c0-0.3,0.3-0.5,0.5-0.5h3.4c0.3,0,0.5,0.3,0.5,0.5v18.8c0,0.3-0.3,0.5-0.5,0.5h-3.4
			c-0.3,0-0.5-0.3-0.5-0.5V715.8z"/>
		<path fill="#FFD600" d="M-276.2,715.8c0-0.3,0.2-0.5,0.5-0.5h11.8c0.3,0,0.5,0.3,0.5,0.5v3.1c0,0.3-0.2,0.5-0.5,0.5h-7.9v3.5h6.5
			c0.3,0,0.5,0.3,0.5,0.5v3.1c0,0.3-0.3,0.5-0.5,0.5h-6.5v3.8h7.9c0.3,0,0.5,0.3,0.5,0.5v3.1c0,0.3-0.2,0.5-0.5,0.5h-11.8
			c-0.3,0-0.5-0.3-0.5-0.5V715.8z"/>
	</g>
</g>
</svg>
