<?xml version="1.0" encoding="UTF-8" standalone="no"?>
<svg
   xmlns:dc="http://purl.org/dc/elements/1.1/"
   xmlns:cc="http://creativecommons.org/ns#"
   xmlns:rdf="http://www.w3.org/1999/02/22-rdf-syntax-ns#"
   xmlns:svg="http://www.w3.org/2000/svg"
   xmlns="http://www.w3.org/2000/svg"
   id="svg8"
   version="1.1"
   viewBox="0 0 226.15381 285.91562"
   height="285.91562mm"
   width="226.15381mm">
  <defs
     id="defs2" />
  <metadata
     id="metadata5">
    <rdf:RDF>
      <cc:Work
         rdf:about="">
        <dc:format>image/svg+xml</dc:format>
        <dc:type
           rdf:resource="http://purl.org/dc/dcmitype/StillImage" />
        <dc:title></dc:title>
      </cc:Work>
    </rdf:RDF>
  </metadata>
  <g
     transform="translate(613.4579,-83.016216)"
     id="layer1">
    <path
       id="path891"
       d="m -600.61985,195.27898 24.20362,-30.07631 -0.75596,-44.60119 49.13691,-1.13393 29.86012,-29.48214 26.08035,30.2381 50.27084,4.15773 v 42.33334 l 30.23809,32.12797 -32.12797,31.37202 0.37797,73.70536 -16.25297,31.37202 -30.61608,23.43452 -34.7738,7.9375 -43.08929,-17.00893 -24.56845,-46.11308 -5.29167,-79.75298 -24.94643,-23.43452 z"
       style="fill:#ffffff;stroke:none;stroke-width:0.26458332px;stroke-linecap:butt;stroke-linejoin:miter;stroke-opacity:1" />
    <path
       id="path843"
       d="m -460.36222,159.85372 0.96152,0.57193 c 2.22038,1.3207 2.86694,4.02782 1.48853,6.23246 -0.92668,1.48217 -2.12365,2.09691 -4.10765,2.10963 -1.70895,0.011 -3.23439,-0.63229 -4.11268,-1.73423 l -0.56856,-0.71336 z m -7.39296,4.06736 -0.005,-1.72552 c -0.0141,-5.32598 2.79654,-9.29629 8.08456,-11.4199 l 1.35745,-0.54514 0.004,0.59768 c 0.003,0.44416 -0.45203,0.90479 -1.77105,1.79346 -0.97617,0.65769 -2.15904,1.71219 -2.62858,2.34335 -0.93918,1.26244 -1.72004,3.61247 -1.57899,4.75204 z"
       style="fill:#b89124;fill-opacity:1;stroke-width:0.26458338" />
    <path
       style="fill:#09902a;fill-opacity:1;stroke:none;stroke-width:0.26458332px;stroke-linecap:butt;stroke-linejoin:miter;stroke-opacity:1"
       d="m -427.10178,231.17337 -49.64514,0.18464 9.88062,-11.75662 46.70352,-0.43306"
       id="path874" />
    <path
       id="path872"
       d="m -572.39347,231.04651 49.64342,-0.45192 -10.03055,-11.62897 -46.70522,0.1658"
       style="fill:#09902a;fill-opacity:1;stroke:none;stroke-width:0.26458332px;stroke-linecap:butt;stroke-linejoin:miter;stroke-opacity:1" />
    <path
       style="fill:#0b82b3;fill-opacity:1;stroke:none;stroke-width:0.26458332px;stroke-linecap:butt;stroke-linejoin:miter;stroke-opacity:1"
       d="m -397.1917,193.97476 -7.53479,12.87751 -55.05289,0.77007 6.46889,-12.2521 z"
       id="path870" />
    <path
       id="path868"
       d="m -600.61985,195.27898 7.69929,12.77984 55.05824,0.0641 -6.62545,-12.16814 z"
       style="fill:#0b82b3;fill-opacity:1;stroke:none;stroke-width:0.26458332px;stroke-linecap:butt;stroke-linejoin:miter;stroke-opacity:1" />
    <path
       id="path839"
       d="m -504.55328,368.75096 c -0.67166,-0.0906 -3.08954,-0.39392 -5.37304,-0.67417 -18.78918,-2.30597 -34.85834,-10.63288 -49.23651,-25.51396 -11.33255,-11.72893 -19.74113,-30.26544 -21.48592,-47.36523 -0.3489,-3.4194 -0.49391,-15.76466 -0.41124,-35.01123 l 0.12772,-29.72942 -2.87857,-3.03682 c -1.5832,-1.67024 -8.86006,-9.23078 -16.17079,-16.80117 -7.31073,-7.57041 -13.37432,-13.97817 -13.47462,-14.23945 -0.10027,-0.26129 4.37344,-5.14895 9.94164,-10.86147 5.56821,-5.71253 12.903,-13.29232 16.29953,-16.84399 l 6.17552,-6.45759 -0.14747,-23.00234 c -0.12092,-18.85976 -0.0291,-23.04864 0.50973,-23.25938 0.36146,-0.14138 11.39809,-0.10308 24.52585,0.085 l 23.86865,0.34209 16.38964,-16.682255 c 9.01429,-9.175239 16.46766,-16.682748 16.56303,-16.683359 0.0954,-6.12e-4 5.88831,6.026333 12.87323,13.393214 6.98491,7.36688 14.28107,15.02826 16.21369,17.02529 l 3.51384,3.63096 23.59762,0.0832 c 12.9787,0.0457 23.89276,0.17507 24.25349,0.28738 0.53885,0.16777 0.65555,4.24291 0.65404,22.83913 l -0.002,22.63491 1.2909,1.63635 c 1.45106,1.83938 2.12565,2.57513 10.17423,11.09667 3.15014,3.33526 6.71634,7.15416 7.92489,8.48644 1.20856,1.33227 3.97108,4.27956 6.13896,6.54953 6.35343,6.65262 5.98558,5.99929 4.44136,7.88803 -0.7254,0.88723 -3.21468,3.60197 -5.53177,6.03274 -2.31707,2.43079 -8.70815,9.29061 -14.20239,15.24404 l -9.98952,10.82445 -0.0771,31.4578 c -0.0828,33.80282 -0.23895,36.41579 -2.7388,45.83283 -4.08633,15.39335 -12.13379,28.82713 -23.49963,39.22841 -5.95473,5.4494 -11.44631,9.23283 -19.11447,13.16896 -6.4283,3.29969 -9.68474,4.49089 -17.24207,6.30708 -6.77633,1.62848 -19.23464,2.71646 -23.90185,2.08731 z m -2.56498,-19.44484 -0.061,-9.51689 -1.3616,0.009 c -2.21383,0.0142 -6.97501,-1.35322 -10.12654,-2.90833 -3.39829,-1.67687 -8.24721,-6.48318 -10.31413,-10.22349 -2.6634,-4.81968 -2.70728,-5.33036 -2.8954,-33.69492 l -0.17418,-26.23242 6.14621,-0.0394 6.1462,-0.0394 0.019,25.74536 c 0.0186,25.18647 0.0414,25.79383 1.04777,27.97868 1.23444,2.67999 3.74427,5.26213 6.35237,6.5354 1.67475,0.81762 3.20596,0.94422 12.38189,1.02366 7.07391,0.0612 11.14338,-0.10234 12.54403,-0.50418 2.75019,-0.78905 5.73371,-3.44935 7.34217,-6.54674 l 1.30653,-2.51598 -0.0266,-25.74531 -0.0266,-25.74531 6.12529,-0.0393 6.12528,-0.0393 -0.13985,26.0942 c -0.14717,27.45967 -0.26396,29.03531 -2.47901,33.44684 -1.68769,3.36118 -5.56886,7.60196 -8.67623,9.4801 -3.32557,2.01004 -8.73286,3.82909 -11.43378,3.84641 l -1.77755,0.0114 0.061,9.5169 c 0.0503,7.84269 0.1815,9.51611 0.74591,9.51249 1.37787,-0.009 9.89605,-1.93639 13.44948,-3.04345 4.91432,-1.53105 15.51845,-7.07927 20.11526,-10.52458 12.01083,-9.00211 20.74847,-21.31705 25.61783,-36.10605 3.27562,-9.9486 3.34776,-10.92685 3.33999,-45.28953 l -0.007,-30.87013 -22.26813,0.14277 -32.47213,-0.32073 1.87196,-1.71128 2.78704,-1.18773 27.36345,-0.12953 21.54272,-0.0922 2.71107,-4.19432 c 1.49482,-1.72477 2.71356,-3.80549 2.71246,-3.97703 -10e-4,-0.17155 -9.77512,-0.24925 -21.72003,-0.17267 l -25.42213,0.16299 1.57678,-1.67723 1.57677,-1.67723 24.57951,-0.15758 24.05036,-0.15419 3.12036,-3.72161 c 1.57834,-1.88246 3.00996,-4.80469 2.88331,-4.83495 -0.30076,-0.0719 -27.15773,-0.15987 -40.13016,-0.1315 l -9.06892,0.0153 1.05441,-0.61552 -0.0141,-2.19621 25.38602,-0.16275 27.50265,-0.17633 2.77295,-2.99169 c 1.52511,-1.64544 2.69131,-4.64374 2.604,-4.72266 -0.0873,-0.0789 -12.51545,-0.42731 -27.61213,-0.1435 h -27.45336 l 0.52407,-0.74185 -0.5444,-2.32253 27.57473,-0.15338 c 15.1661,-0.0843 27.57054,-0.32514 27.56542,-0.53507 -0.005,-0.20994 -3.26801,-3.85594 -7.25089,-8.10222 -3.98289,-4.24628 -9.19228,-9.86834 -11.57642,-12.49348 -4.0759,-4.48787 -5.38352,-5.36119 -6.48542,-4.33138 -0.25349,0.23691 -1.77552,0.92237 -3.38229,1.52327 -1.60676,0.60088 -4.34497,1.7195 -6.08489,2.4858 -2.8489,1.25474 -9.13925,3.9224 -18.73957,7.94723 -11.31162,4.74227 -11.98203,5.08048 -11.64873,5.87682 1.69909,4.05955 2.05024,13.40143 0.69518,18.49401 -2.58447,9.71293 -10.35762,18.62381 -19.53828,22.39804 -6.63325,2.72696 -16.2395,3.0389 -23.05425,0.74864 -15.48279,-5.2034 -25.31589,-21.36609 -22.54105,-37.05087 0.42547,-2.40495 0.81446,-4.68007 0.86442,-5.05581 0.0602,-0.45255 -2.96532,-1.96218 -8.96265,-4.47206 -4.97943,-2.08388 -11.47623,-4.84866 -14.43733,-6.14395 -2.9611,-1.29529 -8.34244,-3.5703 -11.95852,-5.05556 l -6.5747,-2.70049 -11.90987,12.36048 c -6.55044,6.79826 -11.97027,12.51807 -12.0441,12.71068 -0.14449,0.37706 20.54336,0.86045 33.37437,0.77983 4.31923,-0.0272 11.19392,0.0738 15.27708,0.2243 l 7.42393,0.27367 -0.24382,2.08142 0.50923,0.52246 -17.13638,-0.34501 -27.94285,-0.16838 -11.3462,0.20828 c -0.25142,0.005 1.28732,3.81388 2.84056,5.32951 l 2.82404,2.7557 27.57814,0.37786 c 15.16799,0.20781 26.34435,0.502 26.38736,0.54173 0.043,0.0397 -0.42239,0.94197 -0.0815,2.10098 l 1.02214,0.45037 -16.09745,0.1342 c -9.25214,0.0396 -20.61147,-0.0469 -25.24292,-0.19234 -4.71482,-0.14801 -8.41963,-0.0768 -8.4181,0.16171 10e-4,0.23433 1.38803,3.3833 3.06873,5.05747 l 3.05922,3.57311 9.32948,-0.0598 c 5.13122,-0.0329 15.9548,0.043 24.05243,0.16854 l 15.4352,0.12355 2.48283,2.97599 -6.95919,-0.0721 c -8.27976,-0.20229 -39.65589,-0.10193 -39.63432,0.12678 0.0127,0.13414 1.29178,2.65606 2.83422,4.31078 l 2.81122,4.06688 21.86599,0.20098 27.68669,0.16366 4.45154,2.80023 c -0.8852,0.38599 -22.04886,0.52357 -33.72554,0.56864 l -21.23034,0.082 -0.22859,24.55709 c -0.256,27.50377 -0.0233,36.24796 1.13128,42.51792 1.47237,7.99536 6.45531,20.68052 10.29213,26.20084 4.81628,6.92958 8.58749,11.21263 13.91906,15.80829 6.74941,5.81778 18.32386,12.24872 25.88329,14.38113 3.10155,0.8749 10.77417,2.48538 12.16117,2.55262 0.78609,0.0382 0.8495,-0.71928 0.79336,-9.47549 z m -0.0595,-34.20773 c -0.16643,-0.4255 -0.29292,-16.12821 -0.28102,-34.89491 l 0.0215,-34.12126 -11.03107,-0.0434 c -6.06709,-0.0238 -12.45868,-0.0461 -14.20354,-0.0495 l -3.17248,-0.006 -0.16643,-3.96241 -0.16644,-3.96241 32.10955,0.031 c 17.66025,0.017 34.08638,0.0564 36.5025,0.0875 l 4.39296,0.0565 0.16804,4.04668 0.16805,4.04668 -14.17469,-0.0524 -14.17469,-0.0523 0.0619,12.20124 c 0.034,6.71069 0.004,13.95866 -0.0678,16.10661 -0.0713,2.14795 -0.10855,12.30605 -0.0827,22.57358 l 0.0471,18.6682 -7.82405,0.0502 c -6.69949,0.043 -7.86754,-0.061 -8.12663,-0.72349 z m 18.05146,-90.35147 c 4.54729,-1.86254 10.0341,-5.75183 12.44784,-8.82359 2.74205,-3.48953 5.57371,-9.71237 6.23069,-13.69246 0.59744,-3.61939 0.32137,-9.71657 -0.57011,-12.59089 l -0.55388,-1.78586 -2.78747,1.12846 c -4.23655,1.71509 -15.37601,6.42375 -20.45654,8.64699 l -9.28216,-0.03 c -2.63679,-1.1172 -7.86003,-3.33583 -12.53649,-5.32526 -5.3659,-2.28274 -10.0268,-4.1487 -10.35754,-4.14658 -0.89165,0.006 -1.63059,4.34088 -1.5983,9.37691 0.0736,11.47335 6.39876,21.34317 16.88693,26.35033 4.51949,2.15765 7.43832,2.69176 13.558,2.48094 4.79413,-0.16516 6.10787,-0.39663 9.01903,-1.58902 z m 7.81578,-37.01517 c 3.88128,-1.72328 7.31929,-3.30159 7.64003,-3.50734 0.60618,-0.38885 -0.21897,-2.08444 -2.2974,-4.72091 l -0.95708,-1.21403 -6.20915,6.14064 c -6.12826,6.06064 -7.23029,7.31651 -5.90804,6.73278 0.37112,-0.16383 3.85036,-1.70785 7.73164,-3.43114 z m -29.27168,1.91602 c -0.003,-0.46428 -10.93644,-11.31643 -11.39824,-11.31347 -0.51598,0.003 -3.29109,3.92575 -3.28648,4.64523 0.002,0.31522 1.38014,1.16465 3.06251,1.88761 1.68236,0.72296 4.82127,2.15603 6.97536,3.18462 4.07088,1.94388 4.65036,2.1429 4.64685,1.59601 z m 30.09076,-14.75189 c 0.033,-0.26865 -1.12657,-1.30089 -2.5769,-2.29389 -1.982,-1.35702 -2.74809,-1.65515 -3.08443,-1.20038 -0.24612,0.33278 -1.60683,3.46766 -3.0238,6.96641 -1.41698,3.49877 -2.75552,6.57118 -2.97453,6.82759 -0.21901,0.25642 -0.39609,0.79685 -0.3935,1.20094 0.005,0.76054 11.94659,-10.63378 12.05316,-11.50067 z m -25.80223,11.20767 c -2.94987,-7.60098 -6.22589,-15.13858 -6.5809,-15.14164 -0.69118,-0.006 -5.61658,3.10297 -5.61376,3.54342 0.003,0.52315 11.43388,12.0304 11.94692,12.02711 0.22725,-0.001 0.33873,-0.19446 0.24774,-0.42889 z m 11.75864,-7.29784 c 1.10182,-2.87225 2.45653,-6.17056 3.01047,-7.32958 0.55393,-1.15902 0.86515,-2.24752 0.69158,-2.41887 -0.48489,-0.4787 -5.64046,-1.5581 -5.94906,-1.24552 -0.3131,0.31716 -0.27714,16.21958 0.0367,16.21757 0.11386,-7.3e-4 1.10851,-2.35134 2.21032,-5.2236 z m -7.35269,-3.30669 -0.0518,-8.07488 -1.82798,0.35392 c -3.01336,0.58341 -4.27042,1.03586 -4.14579,1.49217 0.0649,0.2376 1.23783,3.33609 2.60649,6.88555 1.36868,3.54947 2.48991,6.67199 2.49162,6.93897 0.002,0.26696 0.22274,0.48398 0.49116,0.48226 0.30569,-0.002 0.4687,-3.02012 0.43627,-8.07799 z m 37.85503,4.667 c 2.40944,-1.01191 7.99423,-3.47095 12.41064,-5.46457 4.41642,-1.99361 9.67275,-4.29901 11.68075,-5.12311 5.5177,-2.26451 11.25509,-4.88563 11.71591,-5.35239 0.52809,-0.53491 0.61187,-33.35166 0.0851,-33.34788 -0.33395,0.002 -10.54642,9.83845 -16.33762,15.73546 -0.93521,0.95231 -5.19259,5.14514 -9.46082,9.31743 -4.26823,4.17227 -10.53025,10.3114 -13.91558,13.6425 l -6.15517,6.05655 2.31116,3.3838 c 1.27114,1.8611 2.53024,3.29566 2.79798,3.18791 0.26775,-0.10774 2.45817,-1.0238 4.86761,-2.0357 z m -63.14707,-1.68961 2.21396,-3.32189 -22.95454,-22.90069 c -12.62499,-12.59538 -23.09269,-22.89981 -23.26156,-22.89873 -0.16885,0.001 -0.25698,7.80394 -0.19584,17.33967 l 0.11115,17.3377 1.14579,0.42725 c 0.95515,0.35615 6.86954,2.94872 13.85566,6.07361 0.84831,0.37945 1.6871,0.68898 1.86398,0.68785 0.28427,-0.002 19.22225,8.09493 23.02113,9.84247 0.80769,0.37154 1.58503,0.68883 1.72743,0.70509 0.14237,0.0163 1.25516,-1.46529 2.47284,-3.29233 z m 61.64926,-17.82608 c 6.08561,-5.94227 15.21137,-14.91078 20.27949,-19.93003 5.0681,-5.01927 10.294,-10.13464 11.61312,-11.36748 l 2.39837,-2.24156 -17.85523,-0.2474 c -9.82038,-0.13608 -18.1157,-0.15874 -18.43403,-0.0504 l -14.88625,34.9443 c -1.11294,2.57233 -1.95315,4.87591 -1.86712,5.11906 0.24493,0.69238 6.46099,4.77857 7.10795,4.67249 0.31843,-0.0522 5.55809,-4.95677 11.6437,-10.89903 z m -53.06491,8.9991 c 1.58044,-1.01676 3.24065,-2.07065 3.68935,-2.34196 0.94199,-0.5696 1.06256,-0.21181 -5.90771,-17.5325 -2.2627,-5.62266 -5.30789,-13.21587 -6.76712,-16.87383 l -2.65312,-6.65083 -5.87501,-0.24969 c -10.42523,-0.44307 -31.01134,-0.3591 -31.00811,0.1265 0.002,0.25219 9.1446,9.52783 20.31762,20.61254 11.173,11.08469 21.25892,21.19118 22.41315,22.45886 1.15422,1.26766 2.28281,2.30368 2.508,2.30224 0.22518,-0.001 1.70251,-0.83454 3.28295,-1.85131 z m 31.90057,-9.76078 13.7684,-34.71911 c -0.002,-0.26607 -0.93038,-1.49071 -2.06372,-2.72143 -4.13607,-4.49142 -14.49952,-15.43096 -18.20227,-19.2141 l -3.80004,-3.882546 0.026,5.612596 c 0.0138,3.08693 -0.0413,17.51142 -0.12359,32.05443 l -0.14969,26.44184 1.90989,0.30428 c 1.05044,0.16735 2.79013,0.57168 3.86598,0.89851 1.38818,0.42171 2.11646,0.44207 2.50858,0.0701 0.30387,-0.28825 1.32103,-2.46833 2.26034,-4.8446 z m -18.46629,4.15289 3.13143,-0.56602 0.14348,-4.71511 c 0.0789,-2.59331 0.12302,-16.46118 0.098,-30.81747 -0.025,-14.35629 0.0763,-26.6013 0.22527,-27.21111 0.14889,-0.60982 0.0474,-1.107333 -0.22556,-1.105583 -0.73775,0.0047 -23.85797,24.150833 -23.85309,24.911483 0.002,0.35886 2.03552,5.73872 4.51825,11.95525 4.84576,12.13323 5.82803,14.60812 8.64021,21.76973 0.99887,2.54374 2.02258,5.14015 2.27495,5.76981 0.29461,0.73511 0.7195,1.04286 1.18721,0.85993 0.40064,-0.15669 2.13756,-0.5396 3.85985,-0.85091 z"
       style="fill:#b89124;fill-opacity:1;stroke-width:0.48805586" />
    <path
       id="path847-6"
       d="m -541.25088,194.71839 c 2.40942,14.70882 12.13345,26.82878 25.13623,37.39455 l -6.35979,0.25013 c -13.04626,-11.55969 -19.23182,-24.18238 -22.5589,-37.60536 z"
       style="fill:#b89124;fill-opacity:1;stroke:none;stroke-width:0.3375724px;stroke-linecap:butt;stroke-linejoin:miter;stroke-opacity:1" />
    <path
       style="fill:#b89124;fill-opacity:1;stroke:none;stroke-width:0.3375724px;stroke-linecap:butt;stroke-linejoin:miter;stroke-opacity:1"
       d="m -457.83705,194.98989 c -2.22062,14.7385 -11.78845,26.98215 -24.65469,37.71377 l 6.51669,0.0628 c 12.89697,-11.72601 18.76596,-24.32122 21.92065,-37.78575 z"
       id="path864" />
    <path
       id="path866"
       d="m -541.25088,194.71839 83.41384,0.2715 3.01254,3.05027 -89.56308,-0.79139"
       style="fill:#b89124;fill-opacity:1;stroke:none;stroke-width:0.26458332px;stroke-linecap:butt;stroke-linejoin:miter;stroke-opacity:1" />
  </g>
</svg>
